{
    "asset" : {
        "generator" : "Khronos glTF Blender I/O v1.7.33",
        "version" : "2.0"
    },
    "scene" : 0,
    "scenes" : [
        {
            "name" : "Scene",
            "nodes" : [
                0
            ]
        }
    ],
    "nodes" : [
        {
            "mesh" : 0,
            "name" : "Icosphere"
        }
    ],
    "meshes" : [
        {
            "name" : "Icosphere",
            "primitives" : [
                {
                    "attributes" : {
                        "POSITION" : 0,
                        "NORMAL" : 1,
                        "TEXCOORD_0" : 2
                    },
                    "indices" : 3
                }
            ]
        }
    ],
    "accessors" : [
        {
            "bufferView" : 0,
            "componentType" : 5126,
            "count" : 2737,
            "max" : [
                1,
                1,
                0.9999999403953552
            ],
            "min" : [
                -0.9999999403953552,
                -1,
                -0.9999999403953552
            ],
            "type" : "VEC3"
        },
        {
            "bufferView" : 1,
            "componentType" : 5126,
            "count" : 2737,
            "type" : "VEC3"
        },
        {
            "bufferView" : 2,
            "componentType" : 5126,
            "count" : 2737,
            "type" : "VEC2"
        },
        {
            "bufferView" : 3,
            "componentType" : 5123,
            "count" : 15360,
            "type" : "SCALAR"
        }
    ],
    "bufferViews" : [
        {
            "buffer" : 0,
            "byteLength" : 32844,
            "byteOffset" : 0
        },
        {
            "buffer" : 0,
            "byteLength" : 32844,
            "byteOffset" : 32844
        },
        {
            "buffer" : 0,
            "byteLength" : 21896,
            "byteOffset" : 65688
        },
        {
            "buffer" : 0,
            "byteLength" : 30720,
            "byteOffset" : 87584
        }
    ],
    "buffers" : [
        {
            "byteLength" : 118304,
            "uri" : "data:application/octet-stream;base64,"
        }
    ]
}
